<?xml version="1.0" encoding="iso-8859-1"?>
<!-- Uploaded to: SVG Repo, www.svgrepo.com, Generator: SVG Repo Mixer Tools -->
<!DOCTYPE svg PUBLIC "-//W3C//DTD SVG 1.1//EN" "http://www.w3.org/Graphics/SVG/1.1/DTD/svg11.dtd">
<svg fill="#000000" version="1.1" id="Capa_1" xmlns="http://www.w3.org/2000/svg" xmlns:xlink="http://www.w3.org/1999/xlink" 
	 width="800px" height="800px" viewBox="0 0 186.744 186.744"
	 xml:space="preserve">
<g>
	<g>
		<path d="M73.184,18.49c-1.146-0.982-2.407-1.72-3.73-2.284c-7.74-5.798-17.82-2.273-23.159,5.367
			c-5.51,7.883-2.361,19.157,5.926,23.517C67.802,53.287,88.063,31.248,73.184,18.49z"/>
		<path d="M184.567,78.723c-14.609-3.26-29.576-1.926-44.366-3.522c-10.812-1.167-23.069-3.744-33.94-1.749
			c-8.001-2.189-15.989-4.429-23.964-6.711c-8.819-2.523-18.303-6.404-27.509-7.666c-2.637-0.622-5.287-1.188-7.961-1.661
			c-1.724-0.304-3.205,1.649-2.607,2.986c-5.574,3.494-6.035,11.893-5.661,19.769c0.383,8.05-0.094,15.636-0.959,23.646
			c-0.67,6.201-0.813,12.35,2.052,18.027c1.253,2.484,3.103,4.295,5.359,5.616c-1.787,0.181-3.575,0.343-5.367,0.485
			c-6.084,0.48-17.146,2.945-19.334-4.279c-3.479-11.482-4.69-25.406-4.763-37.875c0.417-0.624,0.594-1.43,0.348-2.372
			c-0.097-0.37-0.218-0.707-0.33-1.057c0.006-0.512,0-1.043,0.009-1.549c0.017-0.925-0.679-1.508-1.452-1.673
			c-1.673-2.678-4.223-4.115-8.163-3.564c-5.776,0.807-6.139,8.63-5.91,12.808c0.998,18.249,2.884,37.004,7.401,54.729
			c0.239,0.936,1.131,1.977,2.133,2.133c0.901,0.141,1.803,0.257,2.706,0.381c0.422,0.73,1.21,1.249,2.376,1.229
			c2.122-0.035,4.236-0.137,6.347-0.268c2.021,0.17,4.043,0.318,6.068,0.422c-0.143,1.707-0.308,3.411-0.509,5.123
			c-0.133,1.139-0.309,2.4-0.309,3.637c-1.55,0.152-2.993,0.555-4.288,1.547c-1.463-0.197-3.099,0.496-3.391,2.113
			c-0.614,3.399-0.199,5.998,0.854,9.293c0.412,1.289,1.529,2.219,2.915,2.219c8.334,0.004,16.609,0.043,24.838,1.519
			c1.511,0.271,3.246-0.386,3.615-2.052c0.868-3.917,0.238-7.994-0.909-11.795c-0.374-1.239-1.471-2.105-2.778-2.115
			c-2.333-0.02-4.66-0.163-6.988-0.32c0.231-1.341,0.284-2.761,0.431-3.979c0.189-1.558,0.683-3.445,0.776-5.05
			c7.346-0.203,14.683-0.825,21.967-1.899c1.432-0.212,2.1-1.711,2.246-2.95c0.487-4.123,0.084-7.851-0.968-11.691
			c8.013-0.291,16.217-1.422,22.083-1.016c-1.226,13.389-12.144,24.822-16.003,37.52c-0.525,1.725,0.623,3.128,2.123,3.738
			c20.721,8.445,34.631-28.649,34.636-43.422c0.003-11.345-8.368-14.283-18.298-14.744c-3.834-0.179-7.606-0.195-11.392-0.931
			c-6.033-1.172-5.684-6.669-5.346-11.462c0.483-6.863,2.594-13.833,4.918-20.38c8.066,1.282,16.043,3.061,23.94,5.143
			c-0.563,3.331-0.536,6.811-0.672,10.275c-0.064,1.673,1.379,2.795,2.91,2.91c20.464,1.534,41.023-0.171,61.468,0.987
			c-0.75,2.125-1.38,4.295-1.903,6.455c-3.166,4.938-5.634,10.479-7.729,14.879c-4.697,9.865-9.367,20.646-11.76,31.508
			c-0.487-0.004-0.974-0.01-1.459-0.006c-3.011-0.574-6.213-0.399-9.277-0.482c-5.224-0.143-10.452-0.107-15.676,0.043
			c-1.422,0.041-2.648,1.166-2.632,2.632c0.021,2.101-0.823,4.718,0.284,6.619c-0.593,2.569-0.968,5.179-1.277,7.897
			c-0.173,1.517,1.392,2.756,2.771,2.771c17.948,0.2,35.849,1.762,53.802,1.883c1.43,0.01,2.336-0.936,2.84-2.162
			c1.855-4.518,2.396-8.767,1.827-13.594c-0.146-1.229-0.786-2.609-2.173-2.854c-2.191-0.387-6.723-1.104-12.292-1.711
			c3.567-6.639,7.336-13.66,10.557-20.899c6.811-9.367,11.952-19.571,12.347-30.899c0.008-0.219-0.021-0.424-0.064-0.625
			c0.922-0.291,1.713-0.916,1.858-1.979c0.747-5.394,0.96-10.834,1.707-16.226C186.919,80.899,186.345,79.12,184.567,78.723z
			 M45.052,71.724c-0.205,0.35-0.379,0.722-0.531,1.107c0.064-1.276,0.173-2.547,0.407-3.806c0.059-0.319,0.138-0.614,0.228-0.893
			C44.911,69.273,44.885,70.51,45.052,71.724z M97.727,120.354c-0.202,0.068-0.372,0.188-0.522,0.33
			c-0.007-0.002-0.014-0.006-0.021-0.008c-0.598-0.498-1.227-0.943-1.885-1.332C96.232,119.578,97.029,119.926,97.727,120.354z
			 M163.247,167.414c0.018,0.01,0.032,0.021,0.05,0.032c-2.425-0.052-4.848-0.123-7.271-0.205
			C158.437,167.264,160.845,167.312,163.247,167.414z M180.287,85.551c-0.414-0.331-0.794-0.738-0.98-1.006
			c-0.196-0.281-0.419-0.513-0.658-0.7c0.592,0.099,1.186,0.182,1.776,0.294C180.375,84.609,180.335,85.08,180.287,85.551z
			 M175.991,83.43c-0.794,0.292-1.436,0.952-1.692,1.911c-0.255,0.026-0.512,0.058-0.769,0.097c-0.313-0.701-0.886-1.281-1.8-1.493
			c-2.215-0.514-4.427-1.021-6.64-1.519C168.743,82.629,172.382,82.935,175.991,83.43z"/>
	</g>
</g>
</svg>